<svg xmlns="http://www.w3.org/2000/svg" viewBox="0 0 92 92" width="92" height="92">
	<defs>
		<clipPath clipPathUnits="userSpaceOnUse" id="cp1">
			<path d="M-645,-441h1333.33v1000h-1333.33z" />
		</clipPath>
	</defs>
	<style>
		tspan { white-space:pre }
		.shp0 { fill: #88c040;stroke: #88c040 } 
	</style>
	<g id="Page 1">
		<g id="Mask" clip-path="url(#cp1)">
			<path id="Path 2" class="shp0" d="M54.24 54.33L37.45 54.33L37.45 37.54L54.24 37.54L54.24 54.33ZM85.77 54.33L63.39 54.33L63.39 37.54L85.77 37.54C88.29 37.54 90.35 35.49 90.35 32.96C90.35 30.44 88.29 28.39 85.77 28.39L63.39 28.39L63.39 6.01C63.39 3.49 61.34 1.43 58.81 1.43C56.29 1.43 54.24 3.49 54.24 6.01L54.24 28.39L37.45 28.39L37.45 6.01C37.45 3.49 35.4 1.43 32.87 1.43C30.35 1.43 28.3 3.49 28.3 6.01L28.3 28.39L5.91 28.39C3.39 28.39 1.34 30.44 1.34 32.96C1.34 35.49 3.39 37.54 5.91 37.54L28.3 37.54L28.3 54.33L5.91 54.33C3.39 54.33 1.34 56.38 1.34 58.91C1.34 61.43 3.39 63.49 5.91 63.49L28.3 63.49L28.3 85.86C28.3 88.39 30.35 90.44 32.87 90.44C35.4 90.44 37.45 88.39 37.45 85.86L37.45 63.49L54.24 63.49L54.24 85.86C54.24 88.39 56.29 90.44 58.81 90.44C61.34 90.44 63.39 88.39 63.39 85.86L63.39 63.49L85.77 63.49C88.29 63.49 90.35 61.43 90.35 58.91C90.35 56.38 88.29 54.33 85.77 54.33Z" />
		</g>
	</g>
</svg>