<svg xmlns="http://www.w3.org/2000/svg" viewBox="0 0 90 90" width="90" height="90">
	<defs>
		<clipPath clipPathUnits="userSpaceOnUse" id="cp1">
			<path d="M-622,-454h1333.33v1000h-1333.33z" />
		</clipPath>
	</defs>
	<style>
		tspan { white-space:pre }
		.shp0 { fill: #88c040 } 
	</style>
	<g id="Page 1">
		<g id="Mask" clip-path="url(#cp1)">
			<path id="Path 2" class="shp0" d="M33.81 3.76C11.15 9.98 -2.22 33.48 4 56.14C10.22 78.8 33.72 92.17 56.38 85.95C79.04 79.73 92.41 56.23 86.19 33.57C79.97 10.91 56.47 -2.47 33.81 3.76ZM56.9 87.85C33.2 94.36 8.61 80.37 2.1 56.66C-4.41 32.95 9.58 8.37 33.29 1.86C56.99 -4.65 81.58 9.34 88.09 33.05C89.03 36.47 89.54 39.9 89.66 43.3C90.36 63.47 77.19 82.27 56.9 87.85ZM19.33 16.62L19.4 24.22L17.62 24.59L16.24 24.88L11.8 25.81L11.24 23.12L16.34 22.05L16.5 17.21L19.33 16.62ZM21.29 26.04L21.37 33.63L19.59 34L18.21 34.29L13.76 35.22L13.2 32.53L18.3 31.47L18.46 26.62L21.29 26.04ZM27.73 19.68L27.89 14.84L30.72 14.25L30.79 21.84L29.01 22.22L27.63 22.5L23.19 23.43L22.63 20.74L27.73 19.68ZM32.68 23.66L32.75 31.25L30.98 31.63L29.59 31.91L25.15 32.84L24.59 30.16L29.69 29.09L29.85 24.25L32.68 23.66ZM39.12 17.3L39.28 12.46L42.11 11.87L42.18 19.47L40.4 19.84L39.02 20.13L34.57 21.05L34.01 18.37L39.12 17.3ZM44.07 21.28L44.14 28.88L42.36 29.25L40.98 29.54L36.54 30.47L35.98 27.78L41.08 26.72L41.24 21.87L44.07 21.28ZM50.5 14.93L50.67 10.09L53.49 9.5L53.57 17.09L51.79 17.46L50.41 17.75L45.96 18.68L45.4 15.99L50.5 14.93ZM55.46 18.91L55.53 26.5L53.75 26.88L52.37 27.16L47.93 28.09L47.37 25.4L52.47 24.34L52.63 19.5L55.46 18.91ZM57.42 28.32L57.5 35.92L55.72 36.29L54.34 36.57L49.89 37.5L49.33 34.82L54.43 33.75L54.59 28.91L57.42 28.32ZM63.86 21.97L64.02 17.12L66.85 16.53L66.92 24.13L65.14 24.5L63.76 24.79L59.32 25.72L58.75 23.03L63.86 21.97ZM68.81 25.94L68.89 33.54L67.1 33.91L65.73 34.2L61.28 35.13L60.72 32.44L65.82 31.38L65.98 26.53L68.81 25.94ZM70.77 35.35L70.85 42.95L69.07 43.32L67.69 43.61L63.24 44.54L62.68 41.85L67.78 40.79L67.94 35.94L70.77 35.35ZM72.74 44.77L72.81 52.36L71.03 52.73L69.65 53.02L65.2 53.95L64.64 51.26L69.75 50.2L69.91 45.36L72.74 44.77ZM79.17 38.41L79.33 33.57L82.16 32.98L82.24 40.58L80.46 40.95L79.08 41.23L74.63 42.16L74.07 39.48L79.17 38.41ZM84.13 42.39L84.2 49.99L82.42 50.36L81.04 50.64L76.59 51.57L76.03 48.89L81.13 47.82L81.3 42.98L84.13 42.39ZM72.99 62.15L71.61 62.43L67.17 63.36L66.61 60.68L71.71 59.61L71.87 54.77L74.7 54.18L74.77 61.77L72.99 62.15ZM63.57 73.93L62.19 74.22L57.74 75.15L57.18 72.46L62.28 71.4L62.45 66.55L65.27 65.97L65.35 73.56L63.57 73.93ZM55.78 65.74L55.22 63.05L60.32 61.98L60.48 57.14L63.31 56.55L63.39 64.15L61.6 64.52L60.23 64.81L55.78 65.74ZM52.18 76.31L50.8 76.59L46.35 77.52L45.79 74.84L50.89 73.77L51.06 68.93L53.88 68.34L53.96 75.94L52.18 76.31ZM61.35 47.14L61.42 54.74L59.64 55.11L58.26 55.4L53.82 56.33L53.25 53.64L58.36 52.57L58.52 47.73L61.35 47.14ZM57.68 45.7L56.3 45.99L51.85 46.91L51.29 44.23L56.39 43.16L56.56 38.32L59.38 37.73L59.46 45.33L57.68 45.7ZM44.39 68.11L43.83 65.43L48.93 64.36L49.09 59.52L51.92 58.93L52 66.52L50.22 66.9L48.84 67.18L44.39 68.11ZM40.79 78.68L39.41 78.97L34.96 79.9L34.4 77.21L39.51 76.15L39.67 71.3L42.5 70.72L42.57 78.31L40.79 78.68ZM33 70.49L32.44 67.8L37.54 66.74L37.7 61.89L40.53 61.3L40.61 68.9L38.83 69.27L37.45 69.56L33 70.49ZM44.33 38.66L42.95 38.95L38.5 39.88L37.94 37.19L43.04 36.13L43.2 31.28L46.03 30.69L46.11 38.29L44.33 38.66ZM49.96 49.52L50.03 57.12L48.25 57.48L46.87 57.77L42.43 58.7L41.87 56.01L46.97 54.95L47.13 50.11L49.96 49.52ZM46.29 48.07L44.91 48.36L40.46 49.29L39.9 46.6L45 45.54L45.17 40.7L47.99 40.1L48.07 47.7L46.29 48.07ZM31.04 61.08L30.48 58.39L35.58 57.33L35.74 52.48L38.57 51.89L38.64 59.49L36.86 59.86L35.48 60.15L31.04 61.08ZM27.44 71.65L26.06 71.94L21.61 72.86L21.05 70.18L26.15 69.11L26.32 64.27L29.14 63.68L29.22 71.28L27.44 71.65ZM36.61 42.48L36.68 50.08L34.9 50.45L33.52 50.74L29.07 51.66L28.51 48.98L33.62 47.92L33.78 43.07L36.61 42.48ZM32.94 41.04L31.56 41.33L27.11 42.25L26.55 39.57L31.65 38.5L31.82 33.66L34.64 33.07L34.72 40.67L32.94 41.04ZM19.65 63.45L19.09 60.77L24.19 59.7L24.35 54.86L27.18 54.27L27.25 61.87L25.48 62.24L24.1 62.52L19.65 63.45ZM17.68 54.04L17.13 51.35L22.23 50.29L22.39 45.45L25.22 44.86L25.29 52.45L23.51 52.83L22.13 53.11L17.68 54.04ZM15.72 44.63L15.16 41.94L20.27 40.88L20.43 36.04L23.25 35.45L23.33 43.04L21.55 43.41L20.17 43.7L15.72 44.63ZM8.02 28.8L9.9 28.41L9.98 36.01L8.2 36.38L6.82 36.67L5.46 36.95C4.99 39.29 4.73 41.7 4.69 44.13L8.88 43.25L9.04 38.41L11.87 37.82L11.94 45.42L10.16 45.79L8.78 46.08L4.74 46.92C4.88 49.68 5.31 52.48 6.05 55.25L5.74 53.73L10.84 52.67L11 47.82L13.83 47.23L13.9 54.83L12.12 55.2L10.74 55.49L6.38 56.4C7.05 58.67 7.91 60.83 8.93 62.88L12.8 62.08L12.97 57.23L15.79 56.64L15.87 64.24L14.09 64.61L12.71 64.9L10.3 65.4C11.59 67.59 13.07 69.63 14.71 71.5L14.77 71.49L14.93 66.65L17.75 66.06L17.83 73.65L16.94 73.84C17.58 74.46 18.24 75.06 18.92 75.63L19.72 75.47L19.73 76.3C21.11 77.42 22.57 78.44 24.09 79.36L28.12 78.52L28.28 73.68L31.11 73.09L31.18 80.69L29.4 81.06L28.02 81.34L27.84 81.38C28.99 81.93 30.17 82.42 31.37 82.86L33.07 82.5L33.08 83.43C35.79 84.28 38.61 84.84 41.48 85.1L41.63 80.72L44.46 80.13L44.51 85.26C45.65 85.27 46.79 85.24 47.95 85.16L47.75 84.25L52.86 83.18L53.02 78.34L55.85 77.75L55.91 83.78C57.07 83.45 58.2 83.08 59.31 82.67L59.14 81.87L63.02 81.07C63.43 80.86 63.85 80.64 64.26 80.43L64.41 75.97L67.24 75.38L67.27 78.63C70.36 76.6 73.13 74.17 75.51 71.44L74.96 71.55L73.58 71.84L69.13 72.77L68.57 70.08L73.67 69.02L73.84 64.18L76.66 63.59L76.73 69.98C79.09 67 81.03 63.69 82.48 60.17L78.55 60.98L78 58.3L83.1 57.23L83.26 52.39L84.85 52.06C85.9 46.29 85.71 40.19 84.05 34.15C83.14 30.84 81.84 27.73 80.21 24.87L80.27 31.16L78.49 31.54L77.12 31.82L72.67 32.75L72.1 30.07L77.21 29L77.37 24.16L79.53 23.71C79.12 23.05 78.69 22.4 78.25 21.77L76.53 22.12L75.15 22.41L70.7 23.34L70.14 20.65L75.24 19.59L75.3 18.02C73.85 16.39 72.29 14.9 70.62 13.54L68.74 13.93L68.29 11.78C67.2 11.01 66.07 10.3 64.91 9.65L64.96 14.72L63.18 15.09L61.8 15.38L57.35 16.3L56.79 13.62L61.89 12.55L62.04 8.18C60.59 7.51 59.11 6.93 57.59 6.43L55.39 6.89L55.14 5.72C53.97 5.42 52.78 5.17 51.58 4.97L51.61 7.68L49.83 8.05L48.45 8.34L44 9.27L43.44 6.58L48.54 5.52L48.57 4.59C45.81 4.35 42.99 4.4 40.17 4.75L40.22 10.06L38.44 10.43L37.06 10.72L32.61 11.64L32.05 8.96L37.15 7.89L37.24 5.22C36.29 5.41 35.34 5.63 34.39 5.89C32.45 6.43 30.58 7.1 28.78 7.89L28.83 12.43L27.05 12.8L25.67 13.09L21.22 14.02L20.9 12.48C15.21 16.73 10.79 22.39 8.02 28.8ZM6.91 33.84L7 31.4C6.69 32.26 6.42 33.12 6.17 34L6.91 33.84ZM25.8 9.35C24.97 9.79 24.17 10.27 23.39 10.76L25.76 10.27L25.8 9.35Z" />
		</g>
	</g>
</svg>