<svg xmlns="http://www.w3.org/2000/svg" viewBox="0 0 480 190" width="480" height="190">
	<defs>
		<clipPath clipPathUnits="userSpaceOnUse" id="cp1">
			<path d="M-784,-676h2133.33v1600h-2133.33z" />
		</clipPath>
		<clipPath clipPathUnits="userSpaceOnUse" id="cp2">
			<path d="M-784,924h2133.33v-1600h-2133.33z" />
		</clipPath>
	</defs>
	<style>
		tspan { white-space:pre }
		.shp0 { fill: #0b202f } 
		.txt1 { font-size: 107px;fill: rgb(233,106,36);font-family: "Sukhumvit Set" } 
	</style>
	<g id="Page 1">
		<g id="Mask" clip-path="url(#cp1)">
			<path id="Path 2" class="shp0" d="M28.33 49.56C28.23 47.14 27.46 45.33 26.02 44.12C24.57 42.91 22.92 42.31 21.06 42.31C18.83 42.32 17.11 43.04 15.9 44.48C14.69 45.93 14.09 47.58 14.1 49.44C14.1 50.75 14.42 52.03 15.08 53.28C15.73 54.54 17.41 55.67 20.11 56.69L28.49 60.03C33.8 62.06 37.45 64.85 39.46 68.38C41.47 71.91 42.48 75.77 42.49 79.96C42.49 82.94 41.96 85.71 40.9 88.27C39.83 90.83 38.37 93.09 36.51 95.04C34.65 97 32.42 98.54 29.82 99.67C27.22 100.78 24.38 101.35 21.31 101.36C18.52 101.36 15.87 100.9 13.35 99.97C10.84 99.05 8.62 97.7 6.71 95.94C4.8 94.18 3.24 91.97 2.03 89.32C0.81 86.67 0.15 83.58 0.05 80.04L13.45 80.01C13.74 81.97 14.41 83.78 15.49 85.45C16.56 87.13 18.45 87.96 21.15 87.96C23.19 87.95 25.03 87.27 26.66 85.92C28.28 84.57 29.09 82.68 29.09 80.26C29.08 78.31 28.57 76.64 27.54 75.24C26.51 73.85 24.65 72.64 21.95 71.62L15.11 69.12C10.64 67.46 7.12 64.97 4.56 61.68C1.99 58.38 0.7 54.36 0.69 49.61C0.69 46.63 1.24 43.86 2.35 41.3C3.47 38.74 4.97 36.55 6.88 34.73C8.78 32.91 10.99 31.49 13.5 30.46C16.01 29.43 18.71 28.92 21.59 28.91C24.48 28.91 27.15 29.44 29.62 30.5C32.09 31.57 34.21 33.01 35.98 34.82C37.75 36.63 39.15 38.81 40.18 41.37C41.21 43.93 41.73 46.65 41.73 49.53L28.33 49.56ZM69.05 29.66L83.29 29.63L83.42 100.4L69.18 100.43L69.05 29.66ZM69 1.05L83.23 1.02L83.26 15.26L69.02 15.28L69 1.05ZM140.84 52.56C140.83 49.67 140.27 47.35 139.15 45.58C138.03 43.82 136.26 42.93 133.84 42.94C131.7 42.94 129.98 43.76 128.68 45.39C127.38 47.02 126.73 49.14 126.74 51.75L126.79 79.24C126.79 81.47 127.47 83.31 128.82 84.75C130.17 86.19 131.87 86.91 133.92 86.91C136.62 86.9 138.46 86.06 139.43 84.38C140.4 82.71 140.89 80.75 140.89 78.52L140.84 52.56ZM112.46 29.58L126.7 29.55L126.71 35.97C128.47 33.92 130.28 32.2 132.14 30.8C134 29.4 136.7 28.7 140.23 28.69C146.1 28.68 150.24 30.9 152.67 35.37C153.51 36.95 154.12 38.9 154.5 41.22C154.87 43.55 155.06 46.67 155.07 50.57L155.12 77.51C155.13 82.63 155 86.4 154.72 88.82C154.45 91.24 153.85 93.2 152.92 94.69C151.71 96.55 150.16 98.09 148.25 99.3C146.35 100.51 143.67 101.12 140.23 101.13C137.44 101.14 134.95 100.51 132.76 99.26C130.57 98.01 128.68 96.22 127.1 93.9L126.82 93.9L126.88 128.93L112.65 128.96L112.46 29.58ZM184.15 0.83L198.39 0.8L198.45 36.26L198.73 36.25C200.21 34.02 202 32.18 204.1 30.73C206.19 29.29 208.86 28.56 212.12 28.55C213.88 28.55 215.65 28.85 217.42 29.45C219.19 30.05 220.77 31.05 222.17 32.44C223.57 33.84 224.69 35.63 225.53 37.81C226.37 40 226.8 42.67 226.8 45.83L226.91 100.13L212.67 100.16L212.58 51.17C212.57 48.56 211.96 46.52 210.75 45.03C209.54 43.54 207.82 42.8 205.58 42.8C202.88 42.81 201.02 43.65 200 45.33C198.98 47 198.48 49.43 198.48 52.59L198.57 100.18L184.34 100.21L184.15 0.83ZM255.9 7.81L270.14 7.79L270.18 29.28L278.98 29.27L279 40.43L270.2 40.45L270.28 79.67C270.28 81.35 270.44 82.65 270.77 83.58C271.1 84.51 271.61 85.21 272.31 85.67C273.01 86.13 273.92 86.41 275.04 86.5C276.15 86.59 277.5 86.64 279.08 86.63L279.11 100.03L273.25 100.04C269.99 100.05 267.27 99.54 265.08 98.52C262.89 97.51 261.14 96.21 259.84 94.62C258.53 93.05 257.57 91.26 256.96 89.26C256.35 87.26 256.05 85.33 256.05 83.47L255.97 40.48L248.85 40.49L248.83 29.32L255.95 29.31L255.9 7.81ZM314.94 78.47C314.95 81.17 315.58 83.19 316.84 84.54C318.1 85.89 319.79 86.56 321.93 86.55C324.08 86.55 325.77 85.87 327.03 84.52C328.28 83.17 328.9 81.14 328.9 78.44L328.85 50.67C328.84 47.97 328.21 45.95 326.95 44.6C325.69 43.25 323.99 42.58 321.85 42.59C319.71 42.59 318.01 43.27 316.76 44.62C315.51 45.97 314.88 48 314.89 50.69L314.94 78.47ZM300.65 52.95C300.65 50.07 300.83 47.42 301.2 45C301.56 42.58 302.26 40.44 303.28 38.57C304.95 35.5 307.36 33.03 310.53 31.16C313.68 29.29 317.45 28.36 321.83 28.35C326.2 28.34 329.97 29.26 333.14 31.12C336.3 32.97 338.73 35.44 340.41 38.5C341.44 40.36 342.14 42.5 342.51 44.92C342.89 47.34 343.08 49.99 343.09 52.87L343.13 76.18C343.14 79.07 342.95 81.72 342.59 84.14C342.22 86.56 341.53 88.7 340.51 90.57C338.84 93.64 336.42 96.11 333.26 97.98C330.1 99.85 326.33 100.78 321.96 100.79C317.59 100.8 313.81 99.88 310.65 98.02C307.48 96.16 305.06 93.7 303.38 90.64C302.35 88.78 301.65 86.64 301.27 84.22C300.9 81.8 300.7 79.15 300.7 76.26L300.65 52.95ZM370.96 29.09L385.2 29.07L385.21 36.6C388.09 33.99 390.92 31.94 393.71 30.45C396.5 28.95 399.94 28.2 404.04 28.19L404.07 43.27C402.67 42.71 401.22 42.43 399.74 42.44C398.25 42.44 396.64 42.7 394.92 43.21C393.2 43.73 391.62 44.6 390.18 45.81C388.74 47.02 387.56 48.6 386.63 50.56C385.7 52.51 385.24 54.93 385.25 57.82L385.33 99.83L371.09 99.86L370.96 29.09Z" />
		</g>
		<g id="Mask" clip-path="url(#cp2)">
			<text id="W
allet" style="transform: matrix(1,0,0,1,150.595,187.754)" >
				<tspan x="0" y="0" class="txt1">Wallet</tspan>
			</text>
		</g>
	</g>
</svg>