<svg xmlns="http://www.w3.org/2000/svg" viewBox="0 0 76 88" width="76" height="88">
	<defs>
		<clipPath clipPathUnits="userSpaceOnUse" id="cp1">
			<path d="M-629,-456h1333.33v1000h-1333.33z" />
		</clipPath>
	</defs>
	<style>
		tspan { white-space:pre }
		.shp0 { fill: #ffffff } 
	</style>
	<g id="Page 1">
		<g id="Mask" clip-path="url(#cp1)">
			<path id="Path 2" class="shp0" d="M18.65 4.34L56.86 4.34C64.82 4.34 71.3 10.81 71.3 18.78L71.3 60.15C68.55 55.03 63.14 51.53 56.95 51.53L51.4 51.53C56.09 47.65 59.08 41.78 59.08 35.22C59.08 23.53 49.61 14.06 37.92 14.06C26.23 14.06 16.76 23.53 16.76 35.22C16.76 41.78 19.75 47.65 24.44 51.53L18.56 51.53C12.37 51.53 6.96 55.03 4.21 60.15L4.21 18.78C4.21 10.81 10.69 4.34 18.65 4.34ZM56.86 0.47L18.65 0.47C8.55 0.47 0.34 8.68 0.34 18.78L0.34 69.27C0.34 79.36 8.55 87.58 18.65 87.58L56.86 87.58C66.95 87.58 75.17 79.36 75.17 69.27L75.17 18.78C75.17 8.68 66.95 0.47 56.86 0.47Z" />
		</g>
	</g>
</svg>