<svg xmlns="http://www.w3.org/2000/svg" viewBox="0 0 89 90" width="89" height="90">
	<defs>
		<clipPath clipPathUnits="userSpaceOnUse" id="cp1">
			<path d="M-622,-454h1333.33v1000h-1333.33z" />
		</clipPath>
	</defs>
	<style>
		tspan { white-space:pre }
		.shp0 { fill: #ffffff } 
	</style>
	<g id="Page 1">
		<g id="Mask" clip-path="url(#cp1)">
			<path id="Path 2" class="shp0" d="M86.95,76.7c-4.76,-4.74 -7.26,-10.53 -8.42,-16.62c-1.17,-6.16 -1.78,-12.43 -2.07,-18.68c-0.41,-8.75 -1.95,-17.16 -7.16,-24.75c-3.23,-4.71 -7.66,-8.25 -13.42,-10.45c-0.81,-0.31 -1.57,-0.93 -2.09,-1.57c-2.31,-2.85 -5.57,-4.35 -8.9,-4.54v-0.04c-0.12,0 -0.23,0.02 -0.35,0.02c-0.12,0 -0.23,-0.02 -0.35,-0.02v0.04c-3.33,0.19 -6.59,1.69 -8.9,4.54c-0.52,0.64 -1.28,1.26 -2.09,1.57c-5.76,2.19 -10.2,5.74 -13.43,10.45c-5.21,7.59 -6.75,16 -7.16,24.75c-0.29,6.24 -0.9,12.52 -2.07,18.68c-1.16,6.09 -3.66,11.88 -8.42,16.62c-1.31,1.3 -1.97,2.68 -1.94,4.4c0.04,2.5 0.53,2.99 3.29,2.99c10.2,0 20.4,0.02 30.6,-0.02c1.2,-0.01 1.9,0.22 2.55,1.24c1.7,2.67 4.6,4.1 7.57,4.3v0.04c0.12,0 0.23,-0.02 0.35,-0.02c0.11,0 0.23,0.02 0.35,0.02v-0.04c2.97,-0.2 5.86,-1.63 7.57,-4.3c0.65,-1.01 1.35,-1.24 2.55,-1.24c10.2,0.04 20.4,0.03 30.6,0.02c2.76,0 3.25,-0.49 3.29,-2.99c0.03,-1.72 -0.63,-3.1 -1.94,-4.4z" />
		</g>
	</g>
</svg>