<svg xmlns="http://www.w3.org/2000/svg" viewBox="0 0 55 89" width="55" height="89">
	<defs>
		<clipPath clipPathUnits="userSpaceOnUse" id="cp1">
			<path d="M-639,-451h1333.33v1000h-1333.33z" />
		</clipPath>
	</defs>
	<style>
		tspan { white-space:pre }
		.shp0 { fill: #e96a23 } 
	</style>
	<g id="Page 1">
		<g id="Mask" clip-path="url(#cp1)">
			<path id="Path 2" class="shp0" d="M31.81,38.91c-13.29,-3.06 -16.46,-5.35 -16.46,-10.52v-0.19c0,-4.4 4.16,-7.94 11.31,-7.94c6.35,0 12.6,2.39 18.85,6.89l6.55,-8.89c-6.1,-4.72 -12.95,-7.57 -21.24,-8.25v-9.48h-7.12v9.48c-12.11,1.12 -20.55,8.68 -20.55,19.25v0.19c0,12.34 8.33,16.54 23.11,19.99c12.9,2.87 15.67,5.45 15.67,10.23v0.19c0,5.07 -4.76,8.42 -12.3,8.42c-8.63,0 -15.27,-3.15 -21.92,-8.7l-7.34,8.42c6.84,5.89 14.81,9.32 23.32,10.36v9.67h7.12v-9.37c13.78,-0.49 23.32,-7.84 23.32,-19.94v-0.19c0,-11.1 -7.64,-16.16 -22.32,-19.61z" />
		</g>
	</g>
</svg>