<svg xmlns="http://www.w3.org/2000/svg" viewBox="0 0 89 89" width="89" height="89">
	<defs>
		<clipPath clipPathUnits="userSpaceOnUse" id="cp1">
			<path d="M-623,-482h1333.33v1000h-1333.33z" />
		</clipPath>
	</defs>
	<style>
		tspan { white-space:pre }
		.shp0 { fill: #0e202e } 
	</style>
	<g id="Page 1">
		<g id="Mask" clip-path="url(#cp1)">
			<path id="Path 2" class="shp0" d="M6.47 4.64C4.14 13.48 -5.57 60.64 44.62 83.99C94.81 60.64 85.1 13.48 82.78 4.64L6.47 4.64ZM44.62 88.26L43.77 87.87C-14.75 61.32 2.84 2.74 3.03 2.15L3.45 0.78L85.79 0.78L86.22 2.15C86.4 2.74 103.99 61.32 45.47 87.87L44.62 88.26ZM62.04 48.13C62.04 56.96 54.91 61.34 45.78 61.34C39.56 61.34 32.67 59.19 27.2 55.05L31.68 48.52C36.41 51.95 41.55 53.7 46.03 53.7C50.35 53.7 52.83 51.95 52.83 49.16L52.83 49C52.83 45.74 48.19 44.62 43.04 43.11C36.57 41.36 29.36 38.81 29.36 30.78L29.36 30.62C29.36 22.66 36.24 17.81 44.95 17.81C50.43 17.81 56.4 19.64 61.05 22.58L57.07 29.42C52.83 26.96 48.35 25.45 44.7 25.45C40.8 25.45 38.57 27.2 38.57 29.66L38.57 29.82C38.57 32.85 43.29 34.12 48.44 35.71C54.83 37.62 62.04 40.41 62.04 47.97L62.04 48.13ZM77.92 8.31L11.32 8.31C11.32 8.31 -3.74 58.03 44.62 80.73C92.98 58.03 77.92 8.31 77.92 8.31Z" />
		</g>
	</g>
</svg>