<svg xmlns="http://www.w3.org/2000/svg" viewBox="0 0 90 90" width="90" height="90">
	<defs>
		<clipPath clipPathUnits="userSpaceOnUse" id="cp1">
			<path d="M-622,-454h1333.33v1000h-1333.33z" />
		</clipPath>
	</defs>
	<style>
		tspan { white-space:pre }
		.shp0 { fill: #ffffff } 
	</style>
	<g id="Page 1">
		<g id="Mask" clip-path="url(#cp1)">
			<path id="Path 2" class="shp0" d="M44.96 59.44C36.9 59.4 30.4 52.84 30.44 44.78C30.48 36.73 37.04 30.23 45.1 30.26C53.16 30.3 59.66 36.86 59.62 44.92C59.58 52.98 53.02 59.48 44.96 59.44ZM83.99 39.43L75.69 39.39C74.91 34.95 73.22 30.84 70.76 27.25L76.64 21.43C78.84 19.25 78.86 15.7 76.67 13.5C74.5 11.31 70.94 11.29 68.75 13.46L62.87 19.29C59.31 16.8 55.21 15.07 50.78 14.24L50.82 5.94C50.83 2.85 48.33 0.32 45.24 0.31C42.14 0.29 39.62 2.79 39.6 5.89L39.56 14.19C35.12 14.98 31.01 16.67 27.43 19.12L21.61 13.24C19.43 11.05 15.88 11.03 13.68 13.21C11.48 15.39 11.46 18.94 13.64 21.14L19.47 27.01C16.98 30.57 15.25 34.67 14.42 39.1L6.12 39.06C3.02 39.05 0.5 41.55 0.49 44.64C0.47 47.74 2.97 50.26 6.07 50.28L14.37 50.31C15.15 54.75 16.84 58.87 19.3 62.45L13.42 68.27C11.22 70.45 11.21 74 13.39 76.2C14.47 77.3 15.91 77.86 17.34 77.86C18.78 77.87 20.21 77.33 21.31 76.24L27.19 70.42C30.74 72.9 34.84 74.64 39.28 75.46L39.23 83.76C39.22 86.86 41.72 89.38 44.82 89.4C47.91 89.41 50.44 86.91 50.45 83.82L50.49 75.52C54.93 74.73 59.05 73.04 62.63 70.58L68.45 76.46C69.54 77.56 70.97 78.11 72.41 78.12C73.84 78.13 75.28 77.59 76.38 76.5C78.58 74.32 78.6 70.77 76.42 68.57L70.59 62.69C73.08 59.14 74.81 55.04 75.64 50.6L83.94 50.64C87.03 50.66 89.56 48.16 89.57 45.06C89.59 41.96 87.09 39.44 83.99 39.43Z" />
		</g>
	</g>
</svg>