<svg xmlns="http://www.w3.org/2000/svg" viewBox="0 0 90 90" width="90" height="90">
	<defs>
		<clipPath clipPathUnits="userSpaceOnUse" id="cp1">
			<path d="M-646,-442h1333.33v1000h-1333.33z" />
		</clipPath>
	</defs>
	<style>
		tspan { white-space:pre }
		.shp0 { fill: #e96a23 } 
	</style>
	<g id="Page 1">
		<g id="Mask" clip-path="url(#cp1)">
			<path id="Path 2" class="shp0" d="M53.24 53.33L36.45 53.33L36.45 36.54L53.24 36.54L53.24 53.33ZM84.77 53.33L62.39 53.33L62.39 36.54L84.77 36.54C87.29 36.54 89.35 34.49 89.35 31.96C89.35 29.44 87.29 27.39 84.77 27.39L62.39 27.39L62.39 5.01C62.39 2.49 60.34 0.43 57.81 0.43C55.29 0.43 53.24 2.49 53.24 5.01L53.24 27.39L36.45 27.39L36.45 5.01C36.45 2.49 34.4 0.43 31.87 0.43C29.35 0.43 27.3 2.49 27.3 5.01L27.3 27.39L4.91 27.39C2.39 27.39 0.34 29.44 0.34 31.96C0.34 34.49 2.39 36.54 4.91 36.54L27.3 36.54L27.3 53.33L4.91 53.33C2.39 53.33 0.34 55.38 0.34 57.91C0.34 60.43 2.39 62.49 4.91 62.49L27.3 62.49L27.3 84.86C27.3 87.39 29.35 89.44 31.87 89.44C34.4 89.44 36.45 87.39 36.45 84.86L36.45 62.49L53.24 62.49L53.24 84.86C53.24 87.39 55.29 89.44 57.81 89.44C60.34 89.44 62.39 87.39 62.39 84.86L62.39 62.49L84.77 62.49C87.29 62.49 89.35 60.43 89.35 57.91C89.35 55.38 87.29 53.33 84.77 53.33Z" />
		</g>
	</g>
</svg>