
<svg width="411" height="252" xmlns="http://www.w3.org/2000/svg"><defs><linearGradient x1="50%" y1="0%" x2="50%" y2="100%" id="a"><stop stop-color="#9E6AAE" offset="0%"/><stop stop-color="#7797F4" offset="100%"/></linearGradient></defs><g fill="none" fill-rule="evenodd"><path d="M-56-54h540v360H-56z"/><path d="M204.727 230C200.39 219.353 198 207.706 198 195.5c0-.411.003-.822.008-1.232H110.57v-5h97.227v5h-4.705c-.006.41-.009.82-.009 1.232 0 47.727 38.69 86.417 86.417 86.417 47.727 0 86.417-38.69 86.417-86.417 0-47.727-38.69-86.417-86.417-86.417-43.92 0-80.187 32.765-85.693 75.185h-5.124C204.22 139.032 242.769 104 289.5 104c50.534 0 91.5 40.966 91.5 91.5S340.034 287 289.5 287c-36.388 0-67.815-21.24-82.558-52H172.57v-5h32.157zm-57.61-76.465v-5h51.873v5h-51.873zM140.57 235v-5h12.512v5H140.57zM289 269.5c-40.593 0-73.5-32.907-73.5-73.5s32.907-73.5 73.5-73.5 73.5 32.907 73.5 73.5-32.907 73.5-73.5 73.5zm0-5c37.832 0 68.5-30.668 68.5-68.5s-30.668-68.5-68.5-68.5-68.5 30.668-68.5 68.5 30.668 68.5 68.5 68.5z" fill="url(#a)" fill-rule="nonzero" transform="translate(-56 -54)"/><path d="M103 50c0-20.93-4.072-25-25-25 20.928 0 25-4.07 25-25 0 20.93 4.07 25 25 25-20.93 0-25 4.07-25 25zM380 228c0-25.954-5.049-31-31-31 25.951 0 31-5.046 31-31 0 25.954 5.046 31 31 31-25.954 0-31 5.046-31 31zM15.5 233c0-12.977-2.524-15.5-15.5-15.5 12.976 0 15.5-2.523 15.5-15.5 0 12.977 2.523 15.5 15.5 15.5-12.977 0-15.5 2.523-15.5 15.5z" fill="#F1F2FA"/><path d="M137.5 252a9.5 9.5 0 1 1 0-19 9.5 9.5 0 0 1 0 19zm0-3a6.5 6.5 0 1 0 0-13 6.5 6.5 0 0 0 0 13zM380 72c-6.075 0-11-4.925-11-11s4.925-11 11-11 11 4.925 11 11-4.925 11-11 11zm0-5a6 6 0 1 0 0-12 6 6 0 0 0 0 12z" fill="#F1F2FA" fill-rule="nonzero"/></g></svg>
