<svg width="17" height="19" xmlns="http://www.w3.org/2000/svg" xmlns:xlink="http://www.w3.org/1999/xlink">
  <path fill="#798CE5" fill-rule="evenodd" d="M16.963 2.118a.133.133 0 0 0-.102-.119L8.53.004a.142.142 0 0 0-.063 0L.138 1.999a.134.134 0 0 0-.102.119c-.01.136-1.021 13.713 8.42 16.875a.137.137 0 0 0 .088 0c9.441-3.162 8.43-16.739 8.42-16.875z"/>
  <path fill="#fff" transform="translate(6.56 5.16)" fill-rule="evenodd" d="M2.897 3.642a1.932 1.932 0 0 0 1.038-1.706C3.935.866 3.054 0 1.967 0S0 .867 0 1.936c0 .738.42 1.38 1.038 1.706L.562 6.636h2.811l-.476-2.994z"/>
</svg>
