<svg width="196" height="95" xmlns="http://www.w3.org/2000/svg">
  <defs>
    <linearGradient x1="50%" y1="0%" x2="50%" y2="100%" id="a">
      <stop stop-color="#9E6AAE" offset="0%"/>
      <stop stop-color="#7797F4" offset="100%"/>
    </linearGradient>
  </defs>
  <g fill="none" fill-rule="evenodd">
    <path d="M115.766 12.871c-3.254 0-6.339.383-9.15 1.08C102.23 10.313 95.245 8 87.235 8 73.644 8 63 14.655 63 23.15l.001 30.353L63 68.642c0 8.496 10.645 15.15 24.234 15.15 11.099 0 20.233-4.44 23.207-10.696a39.78 39.78 0 0 0 5.325.354c13.59 0 24.234-6.655 24.234-15.15V28.021c0-8.496-10.645-15.15-24.234-15.15zm-10.378 55.771c0 4.29-7.456 9.072-18.154 9.072-10.7 0-18.155-4.781-18.155-9.072v-5.079c4.407 3.094 10.855 5.015 18.155 5.015 7.3 0 13.748-1.92 18.154-5.015v5.079zm0-15.214c0 4.29-7.455 9.071-18.154 9.071-10.7 0-18.155-4.78-18.155-9.071v-5.004c4.407 3.095 10.855 5.015 18.155 5.015 7.3 0 13.748-1.92 18.154-5.015v5.004zm0-15.139c0 4.29-7.455 9.072-18.154 9.072-10.7 0-18.155-4.781-18.155-9.072v-5.003C73.486 36.38 79.934 38.3 87.234 38.3c7.3 0 13.748-1.921 18.154-5.015v5.003zm-18.154-6.067c-10.7 0-18.155-4.781-18.155-9.072 0-4.29 7.456-9.071 18.155-9.071 10.699 0 18.154 4.78 18.154 9.071 0 4.291-7.455 9.072-18.154 9.072zm46.687 26.077c0 4.29-7.456 9.072-18.155 9.072-1.501 0-2.936-.097-4.299-.271v-9.017a40.15 40.15 0 0 0 4.3.228c7.299 0 13.747-1.921 18.154-5.015v5.003zm0-15.139c0 4.291-7.456 9.072-18.155 9.072-1.501 0-2.936-.097-4.299-.27v-9.018a40.15 40.15 0 0 0 4.3.228c7.299 0 13.747-1.92 18.154-5.015v5.003zm-18.155-6.066c-1.501 0-2.936-.097-4.299-.271V23.15c0-1.326-.26-2.608-.749-3.826a33.649 33.649 0 0 1 5.048-.375c10.7 0 18.155 4.781 18.155 9.072 0 4.29-7.456 9.072-18.155 9.072z" fill="url(#a)" fill-rule="nonzero" transform="translate(-1)"/>
    <path d="M14.88 32.863c0-13.339-2.462-15.932-15.12-15.932 12.658 0 15.12-2.593 15.12-15.931 0 13.338 2.461 15.931 15.12 15.931-12.659 0-15.12 2.593-15.12 15.932zM184.398 85.02c0-10.055-1.856-12.01-11.398-12.01 9.542 0 11.398-1.955 11.398-12.01 0 10.055 1.855 12.01 11.398 12.01-9.543 0-11.398 1.955-11.398 12.01zM182.9 16.648c0-6.97-1.287-8.324-7.9-8.324 6.613 0 7.9-1.355 7.9-8.324 0 6.97 1.286 8.324 7.9 8.324-6.614 0-7.9 1.355-7.9 8.324zM19.127 95.02c0-6.288-1.16-7.51-7.127-7.51 5.966 0 7.127-1.223 7.127-7.51 0 6.287 1.16 7.51 7.128 7.51-5.968 0-7.128 1.222-7.128 7.51z" fill="#F1F2FA"/>
    <path d="M36.5 65.733c-3.038 0-5.5-2.626-5.5-5.866C31 56.627 33.462 54 36.5 54s5.5 2.627 5.5 5.867-2.462 5.866-5.5 5.866zm0-1.833c2.088 0 3.781-1.806 3.781-4.033 0-2.228-1.693-4.034-3.781-4.034s-3.781 1.806-3.781 4.034c0 2.227 1.693 4.033 3.781 4.033zm125-24.2c-1.933 0-3.5-1.724-3.5-3.85 0-2.126 1.567-3.85 3.5-3.85s3.5 1.724 3.5 3.85c0 2.126-1.567 3.85-3.5 3.85zm0-1.75c1.054 0 1.91-.94 1.91-2.1 0-1.16-.856-2.1-1.91-2.1-1.054 0-1.91.94-1.91 2.1 0 1.16.856 2.1 1.91 2.1z" fill="#F1F2FA" fill-rule="nonzero"/>
  </g>
</svg>
