<svg width="425" height="195" xmlns="http://www.w3.org/2000/svg"><defs><linearGradient x1="50%" y1="0%" x2="50%" y2="100%" id="a"><stop stop-color="#9E6AAE" offset="0%"/><stop stop-color="#7797F4" offset="100%"/></linearGradient></defs><g fill="none" fill-rule="evenodd"><path d="M-58-76h540v360H-58z"/><path d="M141 9.266l39.464 39.464H141V9.266zM139.536.73L188 49.195v101.37h-5V53.73h-47v-48H8.5A3.505 3.505 0 0 0 5 9.23v171.334H0V9.23C0 4.543 3.813.73 8.5.73h131.036zM23.917 97.544v-5h140.167v5H23.917zm0 22.888v-5h140.167v5H23.917zm0 22.889v-5h140.167v5H23.917zM183 179.902v-18h5v18h-5zM159.083 195v-21.077h5V195h-5z" transform="translate(120)" fill="url(#a)"/><path d="M32.5 80c0-27.21-5.293-32.5-32.5-32.5 27.207 0 32.5-5.29 32.5-32.5 0 27.21 5.29 32.5 32.5 32.5-27.21 0-32.5 5.29-32.5 32.5zM400.5 178c0-20.512-3.99-24.5-24.5-24.5 20.51 0 24.5-3.988 24.5-24.5 0 20.512 3.988 24.5 24.5 24.5-20.512 0-24.5 3.988-24.5 24.5z" fill="#F1F2FA"/><path d="M58 178c-8.837 0-16-7.163-16-16s7.163-16 16-16 16 7.163 16 16-7.163 16-16 16zm0-5c6.075 0 11-4.925 11-11s-4.925-11-11-11-11 4.925-11 11 4.925 11 11 11zM358 80c-6.075 0-11-4.925-11-11s4.925-11 11-11 11 4.925 11 11-4.925 11-11 11zm0-5a6 6 0 1 0 0-12 6 6 0 0 0 0 12z" fill="#F1F2FA" fill-rule="nonzero"/></g></svg>
