
<svg width="481" height="322" xmlns="http://www.w3.org/2000/svg"><defs><linearGradient x1="50%" y1="0%" x2="50%" y2="100%" id="a"><stop stop-color="#9E6AAE" offset="0%"/><stop stop-color="#7797F4" offset="100%"/></linearGradient></defs><g fill="none" fill-rule="evenodd"><path d="M-29-19h540v360H-29z"/><path d="M407.999 337l-4.005 4v-4h4.005zm1.001 4H191.745c-15.322 0-27.743-12.406-27.743-27.709V152l4.005.31v160.981c0 13.094 10.628 23.709 23.738 23.709h212.249l5.006 4zm-1.001-4l-4.005 4v-4h4.005zM277.573 132c-7.073 17.026-23.878 29-43.484 29-20.338 0-37.662-12.885-44.235-30.928-11.186 1.027-21.702 10.196-21.702 20.078 0 11.14 9.049 20.174 20.213 20.174 7.572 0 70.883-.1 189.922-.3V132H277.573zm1.452-4h103.267v42.017l25.566-.043.001 1.005h.14V341H191.745c-15.322 0-27.743-12.406-27.743-27.709l3.743-150.46a24.04 24.04 0 0 1-3.593-12.68c0-11.884 11.707-22.392 24.473-23.974A47.009 47.009 0 0 1 187.03 114c0-25.957 21.07-47 47.06-47 25.989 0 47.058 21.043 47.058 47a46.93 46.93 0 0 1-2.123 14zm124.969 160.536H356.48c-15.588 0-28.224-12.665-28.224-28.286 0-15.621 12.636-28.285 28.224-28.285h47.514v-57.98c-135.653.23-207.525.344-215.629.344-8.54 0-16.048-4.415-20.358-11.085v150.047c0 13.094 10.628 23.709 23.738 23.709h212.249v-48.464zm0-4.005V235.97H356.48c-13.378 0-24.224 10.87-24.224 24.28 0 13.41 10.846 24.28 24.224 24.28h47.514zM358.244 271c-5.53 0-10.012-4.477-10.012-10s4.482-10 10.012-10 10.013 4.477 10.013 10-4.483 10-10.013 10zm-18.022-158c-25.99 0-47.06-21.043-47.06-47s21.07-47 47.06-47c25.99 0 47.058 21.043 47.058 47s-21.069 47-47.058 47zm0-4c23.778 0 43.053-19.252 43.053-43S364 23 340.222 23s-43.054 19.252-43.054 43 19.276 43 43.054 43zm-106.133 48c23.778 0 43.054-19.252 43.054-43s-19.276-43-43.054-43c-23.778 0-43.054 19.252-43.054 43s19.276 43 43.054 43zm-11.632-24.105l-3.39.029-4.812.04.833-4.732c.022-.124.38-2.398 1.008-6.4l.53-3.38h3.872v-10.896c-.74 0-1.243.002-1.508.006l-4.046.057-.015-4.042c-.002-.62-.002-1.287 0-3.017.002-1.642.003-2.342 0-2.948l-.014-3.967 3.972-.047c1.67-.02 3.308-.04 4.921-.058l-.008-2.877-.01-3.958 3.963-.053.954-.013a227.174 227.174 0 0 1 1.79-.017c.593-.003.918-.006 1.227-.01l3.972-.047 1.082-.011 3.301-.035 4.037-.043.01 4.033.008 3.329c.577.105 1.049.208 1.56.342 1.791.47 3.32 1.113 4.7 2.078 2.055 1.438 3.467 3.402 4.107 5.785.405 1.503.525 3.045.351 4.583a10.558 10.558 0 0 1-1.006 3.503c1.47 1.23 2.512 2.809 3.102 4.653.464 1.452.606 2.906.546 4.587a14.623 14.623 0 0 1-.87 4.535 11.483 11.483 0 0 1-3.88 5.246c-1.059.805-2.234 1.433-3.55 1.938-1.538.591-3.13.98-4.947 1.248a4288.18 4288.18 0 0 1 .006 3.056c0 .165-.012.468-.01.373l-.12 3.783-3.789.088-.367.01c-.31.008-.493.012-.703.014l-1.232.01c-.98.007-1.408.01-1.941.017-.154.002-.295 0-.455-.015l-3.26.046-1.046.015a209.793 209.793 0 0 1-1.72.018c-.718.004-1.036.007-1.42.015a4.208 4.208 0 0 1-.891-.07 4.033 4.033 0 0 1-2.03-1.007 4.037 4.037 0 0 1-1.22-2.082 4.124 4.124 0 0 1-.113-.994c0-.858-.002-1.608-.006-2.73l-1.473.012zm5.464-4.046c0 .374.001.735.003 1.095.007 1.889.016 3.777.017 5.666 0 .133.03.16.172.157.76-.015 1.521-.014 2.282-.022.638-.007 1.275-.017 1.925-.027l-.018-6.828c1.185-.003 2.358-.005 3.55.109.006 2.177.013 4.355.012 6.533 0 .143.048.157.179.155 1.061-.013 2.123-.017 3.184-.027.336-.003.673-.015 1.014-.023.003-.093.007-.165.007-.237-.005-2.166-.007-4.332-.02-6.498 0-.143.042-.175.176-.186.689-.057 1.378-.107 2.065-.184 1.808-.202 3.588-.525 5.288-1.177.92-.353 1.783-.796 2.56-1.387a7.483 7.483 0 0 0 2.547-3.438c.39-1.067.588-2.175.628-3.303.039-1.094-.023-2.177-.36-3.229-.403-1.264-1.136-2.315-2.26-3.114-.845-.6-1.793-.997-2.794-1.295-.31-.093-.63-.16-.99-.25.102-.058.162-.091.22-.127.306-.186.62-.362.916-.563 1.622-1.102 2.441-2.636 2.648-4.471a8.282 8.282 0 0 0-.239-3.098c-.395-1.47-1.25-2.645-2.537-3.546-1.03-.72-2.2-1.166-3.419-1.485-.85-.223-1.727-.36-2.6-.498-.635-.1-1.281-.14-1.94-.208l-.016-6.824-4.383.046.015 6.651-3.54.09c-.005-.075-.011-.129-.011-.182-.007-2.124-.015-4.247-.017-6.37 0-.124-.02-.15-.158-.147-.767.014-1.534.013-2.301.02-.637.006-1.275.017-1.92.025l.018 6.84-8.89.106c.006 1.482-.005 4.505 0 5.964.636-.008 2.492-.008 5.569 0v18.89h-4.45c-.651 4.15-.992 6.307-1.02 6.472l8.888-.075zm4.43-26.716c.747-.021 1.488-.061 2.229-.058.913.003 1.83.003 2.738.08.71.059 1.421.185 2.107.366.966.254 1.85.671 2.499 1.44.452.537.67 1.154.747 1.831.053.479.038.957-.097 1.418-.216.743-.666 1.346-1.323 1.808-.915.644-1.967.955-3.059 1.17-1.192.234-2.4.303-3.61.328-.69.014-1.38.003-2.07.012-.141.001-.152-.063-.152-.168-.002-2.178-.008-4.357-.012-6.535l.003-1.692zm-.08 12.464c.436-.016.86-.04 1.284-.048.879-.017 1.758-.045 2.636-.031.725.01 1.45.07 2.174.115.968.06 1.915.24 2.832.52 1.025.314 1.969.769 2.647 1.602.493.605.725 1.298.768 2.057.075 1.31-.43 2.376-1.538 3.175-.757.546-1.628.873-2.535 1.118-1.414.38-2.862.539-4.321.592-1.246.045-2.494.044-3.74.064l-.186.003-.02-9.167zm107.376-70.17l-1.811.17c-3.538.336-6.286 1.489-8.322 3.444-1.98 1.901-2.955 4.285-2.955 7.278 0 1.841.282 3.36.825 4.564a9.687 9.687 0 0 0 2.395 3.249c1.112 1 2.452 1.89 4.026 2.668a85.388 85.388 0 0 0 5.537 2.477c2.31.944 3.989 1.985 5.045 3.204 1.157 1.334 1.71 3.093 1.71 5.192 0 1.97-.582 3.634-1.78 4.879-1.214 1.26-2.854 1.88-4.791 1.88-2.502 0-4.564-.854-6.018-2.568-1.05-1.237-1.683-2.822-1.933-4.727h-6.573c.309 2.9 1.318 5.243 3.016 7.087 2.078 2.257 5.118 3.615 9.213 4.047l1.79.19v6.124h.978v-6.11l1.809-.174c3.465-.334 6.116-1.464 8.033-3.372 1.875-1.867 2.808-4.265 2.808-7.318 0-1.83-.298-3.345-.873-4.563a10.366 10.366 0 0 0-2.473-3.313c-1.12-1.008-2.465-1.919-4.04-2.73a80.013 80.013 0 0 0-5.36-2.505c-2.168-.92-3.793-1.919-4.885-3.05-1.259-1.304-1.876-3.031-1.876-5.068 0-1.98.53-3.644 1.641-4.906 1.163-1.322 2.785-1.979 4.711-1.979 2.178 0 3.978.885 5.197 2.591.803 1.124 1.295 2.518 1.506 4.172h6.593c-.297-2.599-1.196-4.759-2.69-6.524-1.854-2.192-4.412-3.53-7.767-4.026l-1.708-.252V38h-.978v6.426zm-14.469 41.507c-2.79-3.03-4.176-6.997-4.176-11.797v-2h14.552v2c0 1.943.395 3.3 1.106 4.138.653.77 1.587 1.157 2.968 1.157.902 0 1.494-.224 1.91-.655.43-.446.661-1.11.661-2.104 0-1.199-.26-2.028-.732-2.573-.572-.66-1.754-1.392-3.534-2.12a89.361 89.361 0 0 1-5.798-2.594c-1.89-.934-3.536-2.027-4.93-3.281a13.684 13.684 0 0 1-3.365-4.579c-.793-1.76-1.179-3.831-1.179-6.207 0-4.062 1.404-7.492 4.184-10.163 2.34-2.247 5.324-3.677 8.904-4.3V34h8.979v7.078c3.5.822 6.363 2.515 8.528 5.074 2.502 2.957 3.746 6.688 3.746 11.108v2h-14.583v-2c0-1.788-.319-3.06-.88-3.847-.452-.632-1.03-.916-1.942-.916-.83 0-1.347.21-1.708.62-.413.47-.645 1.196-.645 2.265 0 1.052.26 1.777.754 2.29.662.684 1.855 1.418 3.57 2.147a84.002 84.002 0 0 1 5.63 2.63c1.87.963 3.498 2.067 4.883 3.313a14.365 14.365 0 0 1 3.414 4.578c.845 1.788 1.256 3.883 1.256 6.27 0 4.087-1.332 7.512-3.986 10.154-2.24 2.23-5.145 3.65-8.664 4.273v6.548h-8.978V91c-4.164-.73-7.5-2.411-9.945-5.066z" fill="url(#a)" fill-rule="nonzero" transform="translate(-29 -19)"/><path d="M37.5 261c0-31.396-6.107-37.5-37.5-37.5 31.393 0 37.5-6.104 37.5-37.5 0 31.396 6.104 37.5 37.5 37.5-31.396 0-37.5 6.104-37.5 37.5zM442 240c0-22.605-4.397-27-27-27 22.603 0 27-4.395 27-27 0 22.605 4.395 27 27 27-22.605 0-27 4.395-27 27zM207.5 31c0-12.977-2.524-15.5-15.5-15.5 12.976 0 15.5-2.523 15.5-15.5 0 12.977 2.523 15.5 15.5 15.5-12.977 0-15.5 2.523-15.5 15.5z" fill="#F1F2FA"/><path d="M75 126c-6.627 0-12-5.373-12-12s5.373-12 12-12 12 5.373 12 12-5.373 12-12 12zm.5-3a8.5 8.5 0 1 0 0-17 8.5 8.5 0 0 0 0 17zM405.5 67a9.5 9.5 0 1 1 0-19 9.5 9.5 0 0 1 0 19zm0-3a6.5 6.5 0 1 0 0-13 6.5 6.5 0 0 0 0 13zM470 148c-6.075 0-11-4.925-11-11s4.925-11 11-11 11 4.925 11 11-4.925 11-11 11zm0-5a6 6 0 1 0 0-12 6 6 0 0 0 0 12z" fill="#F1F2FA" fill-rule="nonzero"/></g></svg>
