<svg width="18" height="18" xmlns="http://www.w3.org/2000/svg">
  <path d="M7.364 12.682a2.045 2.045 0 1 0 0-4.091 2.045 2.045 0 0 0 0 4.09zM9 0C4.01 0 0 4.01 0 9s4.01 9 9 9 9-4.01 9-9-4.01-9-9-9zm5.195 4.95l-3.6 3.6c-.081.082-.081.164-.04.245.327.532.49 1.146.49 1.841a3.667 3.667 0 0 1-3.681 3.682 3.667 3.667 0 0 1-3.682-3.682 3.667 3.667 0 0 1 3.682-3.681 3.65 3.65 0 0 1 1.84.49c.082.041.164.041.246-.04l.327-.328a.198.198 0 0 0 0-.286l-.204-.205a.395.395 0 0 1 0-.572l.572-.573a.395.395 0 0 1 .573 0l.205.204a.198.198 0 0 0 .286 0l.205-.204a.198.198 0 0 0 0-.286l-.205-.205a.395.395 0 0 1 0-.573l.573-.572a.442.442 0 0 1 .286-.123c.082 0 .205.04.287.123l.204.204a.198.198 0 0 0 .286 0l.205-.204a.442.442 0 0 1 .286-.123c.082 0 .205.04.287.123l.572.572a.442.442 0 0 1 .123.287c0 .081-.04.204-.123.286z" fill="#D5D9F2"/>
</svg>
