<svg width="18" height="18" xmlns="http://www.w3.org/2000/svg">
  <path fill="#455a64" d="M16.81 1.164a3.964 3.964 0 0 0-5.61 0L.912 11.447a.515.515 0 0 0-.146.295l-.762 5.645a.52.52 0 0 0 .509.586c.023 0 .046 0 .07-.004l3.4-.46a.518.518 0 1 0-.138-1.025l-2.727.367.533-3.937 4.144 4.144a.507.507 0 0 0 .728 0L16.81 6.775a3.943 3.943 0 0 0 1.164-2.807 3.927 3.927 0 0 0-1.164-2.804zM11.4 2.428l1.727 1.727-9.387 9.387-1.727-1.727L11.4 2.428zM6.163 15.963l-1.689-1.69 9.387-9.386 1.69 1.689-9.388 9.387zM16.27 5.837l-4.132-4.133a2.925 2.925 0 0 1 1.869-.67c.785 0 1.52.307 2.075.858.556.552.858 1.29.858 2.076 0 .693-.237 1.344-.67 1.869z"/>
</svg>
