<svg width="40" height="46" xmlns="http://www.w3.org/2000/svg" xmlns:xlink="http://www.w3.org/1999/xlink">
  <defs>
    <path d="M10.855.006L.348 2.564a.172.172 0 0 0-.129.152c-.013.175-1.288 17.58 10.621 21.633a.184.184 0 0 0 .11 0C22.86 20.297 21.587 2.892 21.573 2.717a.17.17 0 0 0-.13-.152L10.936.005a.156.156 0 0 0-.081 0" id="a"/>
  </defs>
  <g fill="none" fill-rule="evenodd">
    <path d="M39.302 5.703a.312.312 0 0 0-.239-.278L19.767.725a.324.324 0 0 0-.149 0L.322 5.425a.313.313 0 0 0-.238.278c-.025.323-2.366 32.29 19.508 39.734a.313.313 0 0 0 .202 0C41.67 37.993 39.328 6.026 39.302 5.703" fill="#798CE5" fill-rule="nonzero"/>
    <path d="M35.808 8.8a.256.256 0 0 0-.196-.228L19.754 4.71a.25.25 0 0 0-.122 0L3.773 8.572a.254.254 0 0 0-.195.228c-.021.265-1.945 26.537 16.033 32.654a.23.23 0 0 0 .165 0C37.753 35.337 35.829 9.065 35.808 8.8" fill="#FFF" fill-rule="nonzero"/>
    <g transform="translate(8.594 11.263)">
      <mask id="b" fill="#fff">
        <use xlink:href="#a"/>
      </mask>
      <path d="M30.708-5.562a.312.312 0 0 0-.238-.277l-19.297-4.698a.275.275 0 0 0-.148 0L-8.272-5.84a.313.313 0 0 0-.237.277c-.026.324-2.367 32.29 19.507 39.735a.313.313 0 0 0 .203 0c21.874-7.444 19.532-39.41 19.506-39.734" fill="#7C8BE4" fill-rule="nonzero" mask="url(#b)"/>
    </g>
  </g>
</svg>
