<svg width="471" height="268" xmlns="http://www.w3.org/2000/svg"><defs><linearGradient x1="50%" y1="0%" x2="50%" y2="100%" id="a"><stop stop-color="#9E6AAE" offset="0%"/><stop stop-color="#7797F4" offset="100%"/></linearGradient></defs><g fill="none" fill-rule="evenodd"><path d="M-34-46h540v360H-34z"/><path d="M184.329 201.262l24.147 36.25 24.34-36.32-24.593 12.156-23.894-12.086zm.008-4.478l23.907 12.092 24.515-12.118-24.203-40.42-24.22 40.446zM207 268c-39.764 0-72-32.235-72-72s32.236-72 72-72 72 32.235 72 72-32.236 72-72 72zm0-4c37.555 0 68-30.445 68-68s-30.445-68-68-68-68 30.445-68 68 30.445 68 68 68zM72 144c-39.764 0-72-32.235-72-72S32.236 0 72 0s72 32.235 72 72-32.236 72-72 72zm0-4c37.555 0 68-30.445 68-68S109.555 4 72 4 4 34.445 4 72s30.445 68 68 68zM53.285 99.63l-5.247.03-4.77.026.805-4.7c.037-.219.571-3.71 1.537-10.056l.519-3.408 6.31.019-.063-21.579c-2.404-.01-3.938-.012-4.584-.005l-4.018.045-.027-4.018c-.006-.965-.009-2.008-.014-4.712-.004-2.576-.007-3.672-.013-4.626l-.027-3.99 3.99-.036 9.77-.088-.037-6.721-.023-3.982 3.981-.04 1.479-.017a345.438 345.438 0 0 1 2.751-.019c1.147-.003 1.659-.006 2.279-.016a4.372 4.372 0 0 1 1.79.33l-.003-.348 3.99-.03 1.675-.014 5.108-.039 4.01-.03.02 4.008.04 7.146c1.859.304 2.91.507 4.081.82 2.542.682 4.679 1.596 6.577 2.943 2.76 1.958 4.633 4.588 5.492 7.788.558 2.078.728 4.202.497 6.32-.259 2.384-1.018 4.53-2.274 6.367.225.145.447.296.665.453 2.414 1.74 4.085 4.085 4.987 6.917.633 1.986.834 4.011.758 6.399-.072 2.226-.461 4.364-1.19 6.393a15.609 15.609 0 0 1-5.253 7.188c-1.461 1.122-3.098 2.004-4.952 2.72-2.715 1.047-5.578 1.659-9.06 2.05.01 1.34.017 2.921.028 5.14l.008 1.617c0 .198-.014.612-.011.506l-.11 3.806-3.806.078-.576.014c-.468.011-.742.016-1.05.018-.531.004-.965.006-1.902.01-1.52.007-2.185.01-3.015.018a4.456 4.456 0 0 1-1.776-.332l.001.319-3.977.045-1.62.02a318.731 318.731 0 0 1-2.644.019c-1.12.003-1.62.007-2.226.017a4.423 4.423 0 0 1-.945-.077 4.083 4.083 0 0 1-2.053-1.031 4.089 4.089 0 0 1-1.216-2.094 4.33 4.33 0 0 1-.118-1.03c-.007-1.855-.016-3.389-.038-6.575l-4.51.025zm8.485-4.047l.01 1.715c.02 2.956.042 5.912.053 8.868.001.209.047.25.266.247 1.178-.02 2.355-.015 3.532-.023.987-.008 1.973-.022 2.979-.033l-.06-10.69c1.834.002 3.65.003 5.495.187.02 3.409.04 6.818.049 10.228 0 .223.075.245.277.244 1.642-.016 3.285-.018 4.927-.029.52-.003 1.041-.02 1.57-.03.003-.146.01-.259.01-.371-.018-3.391-.032-6.782-.062-10.172-.002-.225.064-.275.272-.292 1.065-.085 2.132-.16 3.194-.277 2.797-.309 5.551-.806 8.179-1.82 1.42-.547 2.755-1.237 3.955-2.16a11.61 11.61 0 0 0 3.925-5.37c.6-1.667.9-3.4.957-5.167.055-1.711-.046-3.408-.571-5.056-.631-1.98-1.77-3.629-3.514-4.885-1.309-.943-2.778-1.569-4.328-2.04-.482-.148-.977-.253-1.532-.395.156-.091.248-.143.338-.199.473-.29.959-.564 1.415-.877 2.505-1.718 3.766-4.115 4.078-6.988.177-1.63.044-3.256-.384-4.85-.619-2.304-1.947-4.146-3.943-5.562-1.597-1.133-3.41-1.836-5.298-2.342-1.316-.352-2.675-.571-4.025-.791-.984-.16-1.985-.225-3.003-.334l-.057-10.683-6.783.052.054 10.412-5.478.125c-.008-.118-.018-.202-.018-.286-.02-3.324-.043-6.648-.055-9.972 0-.193-.032-.234-.245-.23-1.187.019-2.374.013-3.562.021-.986.007-1.972.02-2.972.03l.061 10.708-13.757.124c.016 2.321.013 7.053.028 9.338.984-.011 3.856-.003 8.617.025l.087 29.57-6.886-.021c-.989 6.493-1.505 9.87-1.55 10.128 4.589-.026 9.15-.05 13.755-.077zm6.733-41.801c1.155-.03 2.302-.09 3.449-.081 1.413.01 2.832.013 4.238.137 1.098.096 2.2.298 3.261.583 1.497.403 2.868 1.06 3.875 2.267.702.843 1.043 1.81 1.164 2.87.085.749.063 1.497-.143 2.219-.33 1.16-1.024 2.103-2.04 2.824-1.413 1.004-3.038 1.485-4.727 1.816-1.844.362-3.713.464-5.586.497-1.067.02-2.135 0-3.203.01-.219.001-.235-.1-.236-.264-.014-3.41-.032-6.82-.048-10.23-.004-.872-.003-1.744-.004-2.648zm-.065 19.511c.673-.024 1.33-.059 1.986-.07 1.36-.022 2.72-.061 4.078-.036 1.123.02 2.244.116 3.366.19 1.498.098 2.964.385 4.385.829 1.588.495 3.05 1.21 4.103 2.518.765.95 1.128 2.035 1.198 3.224.122 2.05-.653 3.718-2.365 4.963-1.17.85-2.516 1.36-3.919 1.738-2.186.59-4.426.83-6.683.907-1.929.065-3.86.058-5.79.084-.077 0-.155.002-.286.004l-.073-14.35zm167.693-4.305c6.73 9.54 8.106 21.84 5.597 35.277a78.085 78.085 0 0 1-3.802 13.475c-1.662 4.324-2.649 6.313-4.047 6.585-.852.166-1.57-.19-2.018-.75a2.346 2.346 0 0 1-.397-.736 5.282 5.282 0 0 1-.207-.897c.042.261-.626-5.374-1.062-7.84-.769-4.337-1.915-8.396-3.604-12.2-1.654-3.724-3.76-7.028-6.383-9.836-4.752-5.086-10.025-8.559-16.04-10.457l-5.128 19.162-39.348-46.38 58.122-23.768-5.316 19.865c9.03 3.27 17.135 9.289 23.633 18.5zm1.665 34.543c2.33-12.475 1.07-23.725-4.934-32.237-6.412-9.09-14.438-14.765-23.386-17.61l-1.82-.578 4.21-15.729-45.558 18.63L197.15 92.36l4.19-15.657 1.915.488c7.584 1.932 14.126 5.99 19.876 12.145 2.944 3.152 5.29 6.83 7.116 10.943 1.833 4.13 3.065 8.492 3.886 13.126.106.596.222 1.352.339 2.16a74.353 74.353 0 0 0 3.324-12.034zM51.747 214.375c-6.73-9.54-8.106-21.84-5.597-35.277a78.085 78.085 0 0 1 3.802-13.475c1.662-4.324 2.648-6.313 4.047-6.585.852-.166 1.57.19 2.018.75.193.24.307.475.397.736.088.256.148.534.207.898-.042-.262.626 5.373 1.062 7.838.769 4.338 1.915 8.397 3.604 12.2 1.653 3.725 3.76 7.029 6.383 9.837 4.751 5.086 10.025 8.559 16.04 10.457l5.128-19.162 39.348 46.38-58.122 23.768 5.316-19.864c-9.031-3.272-17.135-9.29-23.633-18.5zm-1.665-34.543c-2.33 12.475-1.07 23.725 4.934 32.237 6.411 9.09 14.438 14.765 23.386 17.61l1.82.578-4.21 15.729 45.558-18.63-30.842-36.353-4.19 15.657-1.916-.488c-7.584-1.932-14.125-5.99-19.875-12.145-2.944-3.152-5.29-6.83-7.116-10.943-1.833-4.13-3.065-8.492-3.886-13.126a71.547 71.547 0 0 1-.339-2.16 74.354 74.354 0 0 0-3.324 12.034zm158.474-31.28l30.367 50.714-30.457 45.445-30.276-45.449 30.366-50.71z" transform="translate(122)" fill="url(#a)" fill-rule="nonzero"/><path d="M41.5 125c0-34.745-6.759-41.5-41.5-41.5 34.741 0 41.5-6.755 41.5-41.5 0 34.745 6.755 41.5 41.5 41.5-34.745 0-41.5 6.755-41.5 41.5zM431.5 103c0-25.536-4.967-30.5-30.5-30.5 25.533 0 30.5-4.964 30.5-30.5 0 25.536 4.964 30.5 30.5 30.5-25.536 0-30.5 4.964-30.5 30.5z" fill="#F1F2FA"/><path d="M90.5 190.5c-8.837 0-16-7.163-16-16s7.163-16 16-16 16 7.163 16 16-7.163 16-16 16zm0-5c6.075 0 11-4.925 11-11s-4.925-11-11-11-11 4.925-11 11 4.925 11 11 11zM459.5 181.5c-6.075 0-11-4.925-11-11s4.925-11 11-11 11 4.925 11 11-4.925 11-11 11zm0-5a6 6 0 1 0 0-12 6 6 0 0 0 0 12z" fill="#F1F2FA" fill-rule="nonzero"/></g></svg>
