<svg width="18" height="18" xmlns="http://www.w3.org/2000/svg">
  <path d="M9 0a9 9 0 1 0 0 18A9 9 0 0 0 9 0zm-.036 14.137c-.67 0-1.125-.493-1.125-1.15 0-.671.467-1.152 1.125-1.152.683 0 1.126.48 1.139 1.151 0 .658-.456 1.151-1.139 1.151zm1.796-5.505c-.566.627-.783 1.225-.783 1.913v.049a.6.6 0 0 1-.6.599h-.842a.599.599 0 0 1-.599-.587l-.004-.208c-.046-.78.214-1.564.903-2.39.49-.582.888-1.065.888-1.586 0-.535-.352-.884-1.117-.914-.302 0-.64.066-.95.177a.598.598 0 0 1-.774-.384l-.16-.51a.598.598 0 0 1 .348-.732 5.569 5.569 0 0 1 2.056-.385c2.02 0 2.937 1.117 2.937 2.388 0 1.162-.72 1.928-1.303 2.57z" fill="#D5D9F2"/>
</svg>
