<svg width="16" height="16" xmlns="http://www.w3.org/2000/svg">
  <g fill="#424242">
    <path d="M0 0v5.313h5.313V0H0zm4.063 4.063H1.25V1.25h2.813v2.813z"/>
    <path d="M2.031 2.031h1.25v1.25h-1.25v-1.25zM10.687 0v5.313H16V0h-5.313zm4.063 4.063h-2.813V1.25h2.813v2.813z"/>
    <path d="M12.719 2.031h1.25v1.25h-1.25v-1.25zM0 10.687V16h5.313v-5.313H0zm4.063 4.063H1.25v-2.813h2.813v2.813z"/>
    <path d="M2.031 12.719h1.25v1.25h-1.25v-1.25zM1.25 6.156H2.5v1.25H1.25v-1.25zm2.5 2.5v-1.25H2.5v1.25h1.219v1.25h1.25v-1.25H3.75zm5-6.25H10v1.25H8.75v-1.25zM6.25 1.25H7.5v2.406H6.25V1.25zM7.5 0h1.25v1.25H7.5V0zm0 3.656v1.25H6.25v1.25h2.5v-2.5H7.5zm1.25 7.438V9.875H7.5V7.406H6.25v2.5H7.5v1.219h1.25v1.219h2.5v-1.25h-2.5z"/>
    <path d="M8.75 6.156H10v2.5H8.75v-2.5zm6 1.219V6.156h-2.281v1.25H11.25v1.25h1.25v1.219H16v-2.5h-1.25zm0 1.25H12.5V7.406h2.25v1.219zm0 2.469H16v2.5h-1.25v-2.5zM10 8.656h1.25v1.25H10v-1.25zm1.25 3.688h1.25v1.25h-1.25v-1.25zm1.25-1.25h1.25v1.25H12.5v-1.25zm0 2.5V16h1.25v-1.156h1v-1.25H12.5zm-6.25-2.469H7.5V13.5H6.25v-2.375zM10 14.75V13.5H7.5V16h1.25v-1.25h1.219V16h1.25v-1.25H10zM3.75 6.156h2.5v1.25h-2.5v-1.25zM0 7.406h1.25v2.5H0v-2.5z"/>
  </g>
</svg>
