<svg width="412" height="225" xmlns="http://www.w3.org/2000/svg"><defs><linearGradient x1="50%" y1="0%" x2="50%" y2="100%" id="a"><stop stop-color="#9E6AAE" offset="0%"/><stop stop-color="#7797F4" offset="100%"/></linearGradient></defs><g fill="none" fill-rule="evenodd"><path d="M-78-52h540v360H-78z"/><path stroke="url(#a)" stroke-width="5" d="M127.503 98.71L108 118.238 170.69 181 310 41.526 290.497 22 170.69 141.947z"/><path d="M37.5 75c0-31.396-6.107-37.5-37.5-37.5 31.393 0 37.5-6.104 37.5-37.5 0 31.396 6.104 37.5 37.5 37.5-31.396 0-37.5 6.104-37.5 37.5zM364 220c0-22.605-4.397-27-27-27 22.603 0 27-4.395 27-27 0 22.605 4.395 27 27 27-22.605 0-27 4.395-27 27zM15.5 225c0-12.977-2.524-15.5-15.5-15.5 12.976 0 15.5-2.523 15.5-15.5 0 12.977 2.523 15.5 15.5 15.5-12.977 0-15.5 2.523-15.5 15.5zM398.5 58c0-11.303-2.199-13.5-13.5-13.5 11.301 0 13.5-2.197 13.5-13.5 0 11.303 2.197 13.5 13.5 13.5-11.303 0-13.5 2.197-13.5 13.5z" fill="#F1F2FA"/><path d="M65.417 173.833c-5.753 0-10.417-4.663-10.417-10.416S59.664 153 65.417 153s10.416 4.664 10.416 10.417-4.663 10.416-10.416 10.416zm0-3.333a7.083 7.083 0 1 0 0-14.167 7.083 7.083 0 0 0 0 14.167zM312.5 135a8.5 8.5 0 1 1 0-17 8.5 8.5 0 0 1 0 17zm0-3.864a4.636 4.636 0 1 0 0-9.272 4.636 4.636 0 0 0 0 9.272z" fill="#F1F2FA" fill-rule="nonzero"/></g></svg>
