<svg xmlns="http://www.w3.org/2000/svg" viewBox="0 0 89 88" width="89" height="88">
	<defs>
		<clipPath clipPathUnits="userSpaceOnUse" id="cp1">
			<path d="M-634,-470h1333.33v1000h-1333.33z" />
		</clipPath>
	</defs>
	<style>
		tspan { white-space:pre }
		.shp0 { fill: #e96a23 } 
	</style>
	<g id="Page 1">
		<g id="Mask" clip-path="url(#cp1)">
			<path id="Path 2" class="shp0" d="M86.96,40.32l-30.39,-38.67c-1.6,-2.04 -4.22,-2.04 -5.82,0c-1.6,2.04 -1.6,5.36 0,7.4l23.68,30.13h-60.05l23.68,-30.13c0.77,-0.99 1.2,-2.3 1.2,-3.7c0,-1.4 -0.42,-2.72 -1.2,-3.7c-1.6,-2.04 -4.21,-2.04 -5.82,0l-30.39,38.67c-0.77,0.99 -1.2,2.3 -1.2,3.7c0,1.4 0.42,2.72 1.2,3.7l30.39,38.67c1.6,2.04 4.21,2.04 5.82,0c0.77,-0.98 1.2,-2.3 1.2,-3.7c0,-1.4 -0.42,-2.72 -1.2,-3.7l-23.68,-30.14h60.05l-23.68,30.14c-1.6,2.04 -1.6,5.36 0,7.4c0.8,1.02 1.86,1.53 2.91,1.53c1.05,0 2.11,-0.51 2.91,-1.53l30.39,-38.67c0.77,-0.99 1.2,-2.3 1.2,-3.7c0,-1.4 -0.42,-2.72 -1.2,-3.7z" />
		</g>
	</g>
</svg>